# xmcd
#
# Track frame offsets:
# 150
# 1553
# 11842
# 23104
# 25438
# 34262
# 35167
# 45760
# 47785
# 66125
# 67903
# 92273
# 95451
# 110402
# 124855
# 133982
# 143574
# 158374
# 165940
# 166698
# 173980
# 177252
# 188195
# 188588
# 206095
# 206876
# 212414
# 212965
# 222009
# 223382
# 235070
# 235972
# 246974
# 257362
# 257926
# 270881
# 277117
# 296904
# 312298
#
# Disc length: 4168 seconds
#
# Revision: 2
# Processed by: cddbd v1.5.1PL0 Copyright (c) Steve Scherf et al.
# Submitted via: plextools 2.21
#
DISCID=30104627
DTITLE=Bucky Pizzarelli - Flashes: A lifetime in Words and Music. Solo 7-string guitar, volume 3
DYEAR=2004
DGENRE=Jazz
TTITLE0=Bucky Pizzarelli - Bucky introduction to Richard Rodgers
TTITLE1=Bucky Pizzarelli - This Nearly Was Mine
TTITLE2=Bucky Pizzarelli - You Are Too Beautiful
TTITLE3=Bucky Pizzarelli - Bucky introduction to The Three Suns theme
TTITLE4=Bucky Pizzarelli - Twilight Time
TTITLE5=Bucky Pizzarelli - Bucky introduction to Mockingbird
TTITLE6=Bucky Pizzarelli - Mockingbird
TTITLE7=Bucky Pizzarelli - Bucky introduction to Ann Ronell
TTITLE8=Bucky Pizzarelli - Willow Weep For Me
TTITLE9=Bucky Pizzarelli - Bucky introduction to Henry Mancini
TTITLE10=Bucky Pizzarelli - Dreamsville - Mr. Lucky - Moon River
TTITLE11=Bucky Pizzarelli - Bucky introduction to Bix Beiderbecke
TTITLE12=Bucky Pizzarelli - In The Dark
TTITLE13=Bucky Pizzarelli - Flashes
TTITLE14=Bucky Pizzarelli - Bucky introduction to Dick Ables
TTITLE15=Bucky Pizzarelli - Out Of This World
TTITLE16=Bucky Pizzarelli - Sleepin' Bee
TTITLE17=Bucky Pizzarelli - Last Night When We Were Young
TTITLE18=Bucky Pizzarelli - Bucky introduction to Frank Sinatra
TTITLE19=Bucky Pizzarelli - Why Shouldn't I?
TTITLE20=Bucky Pizzarelli - Bucky introduction to Johnny Mandel
TTITLE21=Bucky Pizzarelli - The Shadow Of Your Smile
TTITLE22=Bucky Pizzarelli - Bucky introduction to Bing Crosby
TTITLE23=Bucky Pizzarelli - Pennies From Heaven
TTITLE24=Bucky Pizzarelli - Bucky introduction to Down Memory Lane
TTITLE25=Bucky Pizzarelli - Down Memory Lane
TTITLE26=Bucky Pizzarelli - Bucky introduction to Noel Coward
TTITLE27=Bucky Pizzarelli - Sail Away
TTITLE28=Bucky Pizzarelli - Bucky introduction to the Beatles
TTITLE29=Bucky Pizzarelli - Yesterday
TTITLE30=Bucky Pizzarelli - Bucky introduction to Eastwood Lane
TTITLE31=Bucky Pizzarelli - Land Of The Loon
TTITLE32=Bucky Pizzarelli - Lonesome Lake
TTITLE33=Bucky Pizzarelli - Bucky introduction to More Than You Know
TTITLE34=Bucky Pizzarelli - More Than You Know
TTITLE35=Bucky Pizzarelli - Bucky introduction to Benny Goodman
TTITLE36=Bucky Pizzarelli - Fandanguillo
TTITLE37=Bucky Pizzarelli - Second Movement from Guitar Concerto in D
TTITLE38=Bucky Pizzarelli - Bucky signing off
EXTD=
EXTT0=
EXTT1=
EXTT2=
EXTT3=
EXTT4=
EXTT5=
EXTT6=
EXTT7=
EXTT8=
EXTT9=
EXTT10=
EXTT11=
EXTT12=
EXTT13=
EXTT14=
EXTT15=
EXTT16=
EXTT17=
EXTT18=
EXTT19=
EXTT20=
EXTT21=
EXTT22=
EXTT23=
EXTT24=
EXTT25=
EXTT26=
EXTT27=
EXTT28=
EXTT29=
EXTT30=
EXTT31=
EXTT32=
EXTT33=
EXTT34=
EXTT35=
EXTT36=
EXTT37=
EXTT38=
PLAYORDER=
